# xmcd
#
# Track frame offsets: 
#        150
#        28968
#        43337
#        56957
#        70129
#        92716
#        105730
#        121901
#        134558
#
# Disc length: 1918 seconds
#
# Revision: 5
# Processed by: cddbd v1.5.2PL0 Copyright (c) Steve Scherf et al.
# Submitted via: ExactAudioCopyFreeDBPlugin 1.0
#
DISCID=89077c09
DTITLE=George McCrae - 1974 - Rock Your Baby
DYEAR=1974
DGENRE=R&B
TTITLE0=Rock Your Baby
TTITLE1=I Can't Leave You Alone
TTITLE2=You Got My Heart
TTITLE3=You Can Have It All
TTITLE4=Look At You
TTITLE5=Make It Right
TTITLE6=I Need Somebody Like You
TTITLE7=I Get Lifted
TTITLE8=Rock Your Baby (Reprise)
EXTD=
EXTT0=
EXTT1=
EXTT2=
EXTT3=
EXTT4=
EXTT5=
EXTT6=
EXTT7=
EXTT8=
PLAYORDER=
